<svg width="25" height="25" viewBox="0 0 25 25" fill="none" xmlns="http://www.w3.org/2000/svg">
<path d="M18.5026 15.3138C18.5026 16.4076 18.8138 16.8438 19.6276 16.8438C21.4414 16.8438 22.5964 14.5326 22.5964 10.6888C22.5964 4.8138 18.3151 2.0013 12.9701 2.0013C7.47135 2.0013 2.47005 5.6888 2.47005 12.6576C2.47005 19.3138 6.84505 22.9388 13.5638 22.9388C15.8451 22.9388 17.3763 22.6888 19.7188 21.9076L20.2214 24C17.9089 24.7513 15.4375 24.9688 13.5326 24.9688C4.72005 24.9688 0 20.125 0 12.6562C0 5.125 5.47005 0 13.0013 0C20.8451 0 25 4.6875 25 10.4375C25 15.3125 23.4701 19.0312 18.6576 19.0312C16.4688 19.0312 15.0326 18.1563 14.8451 16.2174C14.2826 18.3737 12.7826 19.0312 10.75 19.0312C8.03125 19.0312 5.75 16.9362 5.75 12.7188C5.75 8.46875 7.7513 5.84375 11.3451 5.84375C13.2513 5.84375 14.4388 6.59375 14.9674 7.78125L15.875 6.125H18.5V15.3138H18.5026ZM14.6602 11.1888C14.6602 9.47135 13.3776 8.7513 12.3151 8.7513C11.1589 8.7513 9.87891 9.6875 9.87891 12.4388C9.87891 14.6263 10.8477 15.8451 12.3151 15.8451C13.3464 15.8451 14.6602 15.1888 14.6602 13.3763V11.1888Z" fill="#408ED5"/>
</svg>
